<?xml version="1.0" encoding="utf-8"?>
<!-- Generator: Adobe Illustrator 16.0.0, SVG Export Plug-In . SVG Version: 6.00 Build 0)  -->
<!DOCTYPE svg PUBLIC "-//W3C//DTD SVG 1.1//EN" "http://www.w3.org/Graphics/SVG/1.1/DTD/svg11.dtd">
<svg version="1.1" id="Layer_1" xmlns="http://www.w3.org/2000/svg" xmlns:xlink="http://www.w3.org/1999/xlink" x="0px" y="0px"
	 width="307.386px" height="113.777px" viewBox="0 0 307.386 113.777" enable-background="new 0 0 307.386 113.777"
	 xml:space="preserve">
<g>
	<path fill="#00FF00" stroke="#00FFFF" stroke-width="6" stroke-miterlimit="10" d="M299.789,56.858c0,27.614-22.385,50-50,50
		H57.534c-27.615,0-50-22.386-50-50l0,0c0-27.614,22.385-50,50-50h192.255C277.403,6.858,299.789,29.244,299.789,56.858
		L299.789,56.858z"/>
	<path d="M18.868,52.054l53.594-24.898v11.838L31.934,56.746v0.221l40.528,17.754v11.835L18.868,61.659V52.054z"/>
	<path d="M88.143,86.557l17.533-59.397h8.274L96.417,86.557H88.143z"/>
	<g>
		<path d="M125.368,27.863c4.937-0.793,11.37-1.236,18.154-1.236c11.281,0,18.597,2.029,24.326,6.347
			c6.169,4.583,10.044,11.896,10.044,22.383c0,11.369-4.14,19.211-9.869,24.061c-6.258,5.198-15.776,7.667-27.408,7.667
			c-6.962,0-11.898-0.443-15.248-0.883V27.863z M138.853,76.334c1.145,0.262,2.996,0.262,4.669,0.262
			c12.163,0.089,20.094-6.609,20.094-20.796c0.089-12.338-7.138-18.861-18.683-18.861c-2.995,0-4.936,0.265-6.08,0.529V76.334z"/>
		<path d="M195.669,38.351h-15.952V27.07h45.65v11.281h-16.216v48.117h-13.483V38.351z"/>
	</g>
	<path d="M288.454,61.992L234.86,86.557V74.721l41.421-17.754v-0.221L234.86,38.994V27.156l53.593,24.564V61.992z"/>
</g>
</svg>
