<?xml version="1.0" encoding="utf-8"?>
<!-- Generator: Adobe Illustrator 16.0.0, SVG Export Plug-In . SVG Version: 6.00 Build 0)  -->
<!DOCTYPE svg PUBLIC "-//W3C//DTD SVG 1.1//EN" "http://www.w3.org/Graphics/SVG/1.1/DTD/svg11.dtd">
<svg version="1.1" id="Layer_1" xmlns="http://www.w3.org/2000/svg" xmlns:xlink="http://www.w3.org/1999/xlink" x="0px" y="0px"
	 width="219.155px" height="62.804px" viewBox="0 0 219.155 62.804" enable-background="new 0 0 219.155 62.804"
	 xml:space="preserve">
<g>
	<path fill="#00FF00" stroke="#00FFFF" stroke-width="6" stroke-miterlimit="10" d="M238.089,160.139c0,27.614-22.385,50-50,50
		H-4.166c-27.615,0-50-22.386-50-50l0,0c0-27.614,22.385-50,50-50h192.255C215.704,110.139,238.089,132.525,238.089,160.139
		L238.089,160.139z"/>
	<path d="M-42.832,155.335l53.594-24.898v11.838l-40.528,17.751v0.221l40.528,17.754v11.835l-53.594-24.898V155.335z"/>
	<path d="M26.443,189.838l17.533-59.397h8.274l-17.533,59.397H26.443z"/>
	<g>
		<path d="M63.668,131.145c4.937-0.793,11.37-1.236,18.154-1.236c11.281,0,18.597,2.029,24.326,6.347
			c6.169,4.583,10.044,11.896,10.044,22.383c0,11.369-4.14,19.211-9.869,24.061c-6.258,5.198-15.776,7.667-27.408,7.667
			c-6.962,0-11.898-0.443-15.248-0.883V131.145z M77.153,179.615c1.145,0.262,2.996,0.262,4.669,0.262
			c12.163,0.089,20.094-6.609,20.094-20.796c0.089-12.338-7.138-18.861-18.683-18.861c-2.995,0-4.936,0.265-6.08,0.529V179.615z"/>
		<path d="M133.969,141.632h-15.952v-11.281h45.65v11.281h-16.216v48.117h-13.483V141.632z"/>
	</g>
	<path d="M226.754,165.273l-53.593,24.564v-11.835l41.421-17.754v-0.221l-41.421-17.751v-11.838l53.593,24.564V165.273z"/>
</g>
<polygon points="163.668,1.438 163.668,1.351 118.018,1.351 118.018,12.632 133.969,12.632 133.969,60.749 147.452,60.749 
	147.452,12.634 163.668,13.275 205.089,31.027 205.089,31.248 163.668,49.002 163.668,60.838 217.261,36.273 217.261,26.002 "/>
<path d="M106.148,7.256c-5.729-4.318-13.045-6.347-24.326-6.347c-0.236,0-0.469,0.004-0.704,0.006l-0.005-0.047l-2.149,0.07
	c-1.404,0.026-2.783,0.072-4.131,0.135L63.668,1.438L10.074,26.335v0l-7.065,3.257c-0.646,0.22-1.115,0.826-1.115,1.547
	c0,0.732,0.483,1.345,1.145,1.556l7.036,3.244l53.593,24.897l6.027,0.234c2.062,0.14,4.435,0.242,7.142,0.278l0.422,0.017
	l0.003-0.013c0.544,0.006,1.081,0.013,1.652,0.013c11.631,0,21.15-2.469,27.408-7.667c5.729-4.85,9.869-12.692,9.869-24.061
	C116.192,19.151,112.317,11.838,106.148,7.256z M65.002,27.133c2.226,0,4.038,1.812,4.038,4.039c0,2.227-1.812,4.039-4.038,4.039
	c-1.584,0-2.867,1.282-2.867,2.866c0,1.583,1.283,2.866,2.867,2.866c2.226,0,4.038,1.812,4.038,4.038
	c0,2.227-1.812,4.039-4.038,4.039c-0.211,0-0.416,0.026-0.613,0.069l-0.721-0.086L39.347,38.348V23.928l24.321-10.653l0.576-0.065
	c0.243,0.067,0.494,0.114,0.758,0.114c2.226,0,4.038,1.813,4.038,4.039c0,2.227-1.812,4.038-4.038,4.038
	c-1.584,0-2.867,1.284-2.867,2.866C62.136,25.851,63.418,27.133,65.002,27.133z M77.153,11.749c1.145-0.265,3.085-0.529,6.08-0.529
	c8.376,0,14.461,3.451,17.146,10.047H73.953c0.524-1.197,0.819-2.515,0.819-3.904c0-1.902-0.555-3.672-1.498-5.175L77.153,11.749z
	 M101.917,30.081c0,1.783-0.126,3.447-0.37,4.996H73.952c0.524-1.197,0.82-2.516,0.82-3.905c0-1.388-0.295-2.708-0.82-3.905h27.833
	C101.868,28.173,101.924,29.102,101.917,30.081z M81.822,50.877c-1.673,0-3.524,0-4.669-0.262l-3.877-0.464
	c0.942-1.501,1.496-3.271,1.496-5.17c0-1.388-0.295-2.708-0.819-3.904h25.808C96.622,47.746,90.238,50.939,81.822,50.877z"/>
</svg>
